<mxfile host="app.diagrams.net" agent="Mozilla/5.0 (Macintosh; Intel Mac OS X 10_15_7) AppleWebKit/537.36 (KHTML, like Gecko) Chrome/131.0.0.0 Safari/537.36" version="26.0.6">
  <diagram name="Page-1" id="-jsWknLSB2cgd7WFWsZX">
    <mxGraphModel dx="2045" dy="639" grid="1" gridSize="10" guides="1" tooltips="1" connect="1" arrows="1" fold="1" page="1" pageScale="1" pageWidth="850" pageHeight="1100" math="0" shadow="0">
      <root>
        <mxCell id="0" />
        <mxCell id="1" parent="0" />
        <mxCell id="3TScN3PvkGAsa4OGOtqx-4" value="" style="edgeStyle=orthogonalEdgeStyle;rounded=1;orthogonalLoop=1;jettySize=auto;html=1;curved=0;" edge="1" parent="1" source="3TScN3PvkGAsa4OGOtqx-1" target="3TScN3PvkGAsa4OGOtqx-3">
          <mxGeometry relative="1" as="geometry" />
        </mxCell>
        <mxCell id="3TScN3PvkGAsa4OGOtqx-7" value="&lt;font data-font-src=&quot;https://fonts.googleapis.com/css?family=K2D&quot; face=&quot;K2D&quot;&gt;User-Side&lt;/font&gt;" style="edgeLabel;html=1;align=center;verticalAlign=middle;resizable=0;points=[];" vertex="1" connectable="0" parent="3TScN3PvkGAsa4OGOtqx-4">
          <mxGeometry x="-0.2733" relative="1" as="geometry">
            <mxPoint as="offset" />
          </mxGeometry>
        </mxCell>
        <mxCell id="3TScN3PvkGAsa4OGOtqx-6" value="" style="edgeStyle=orthogonalEdgeStyle;rounded=1;orthogonalLoop=1;jettySize=auto;html=1;curved=0;" edge="1" parent="1" source="3TScN3PvkGAsa4OGOtqx-1" target="3TScN3PvkGAsa4OGOtqx-5">
          <mxGeometry relative="1" as="geometry" />
        </mxCell>
        <mxCell id="3TScN3PvkGAsa4OGOtqx-8" value="&lt;span style=&quot;font-family: K2D;&quot;&gt;Server-Side&lt;/span&gt;" style="edgeLabel;html=1;align=center;verticalAlign=middle;resizable=0;points=[];" vertex="1" connectable="0" parent="3TScN3PvkGAsa4OGOtqx-6">
          <mxGeometry x="-0.4184" relative="1" as="geometry">
            <mxPoint as="offset" />
          </mxGeometry>
        </mxCell>
        <mxCell id="3TScN3PvkGAsa4OGOtqx-10" value="" style="edgeStyle=orthogonalEdgeStyle;rounded=0;orthogonalLoop=1;jettySize=auto;html=1;" edge="1" parent="1" source="3TScN3PvkGAsa4OGOtqx-1" target="3TScN3PvkGAsa4OGOtqx-9">
          <mxGeometry relative="1" as="geometry" />
        </mxCell>
        <mxCell id="3TScN3PvkGAsa4OGOtqx-13" value="Service" style="edgeLabel;html=1;align=center;verticalAlign=middle;resizable=0;points=[];" vertex="1" connectable="0" parent="3TScN3PvkGAsa4OGOtqx-10">
          <mxGeometry x="-0.1382" relative="1" as="geometry">
            <mxPoint as="offset" />
          </mxGeometry>
        </mxCell>
        <mxCell id="3TScN3PvkGAsa4OGOtqx-1" value="Mobile Application" style="rounded=1;whiteSpace=wrap;html=1;fillColor=none;fontFamily=K2D;fontSource=https%3A%2F%2Ffonts.googleapis.com%2Fcss%3Ffamily%3DK2D;" vertex="1" parent="1">
          <mxGeometry x="280" y="20" width="120" height="60" as="geometry" />
        </mxCell>
        <mxCell id="3TScN3PvkGAsa4OGOtqx-3" value="" style="whiteSpace=wrap;html=1;fontFamily=K2D;fillColor=none;rounded=1;fontSource=https%3A%2F%2Ffonts.googleapis.com%2Fcss%3Ffamily%3DK2D;" vertex="1" parent="1">
          <mxGeometry x="-160" y="160" width="240" height="200" as="geometry" />
        </mxCell>
        <mxCell id="3TScN3PvkGAsa4OGOtqx-5" value="" style="whiteSpace=wrap;html=1;fontFamily=K2D;fillColor=none;rounded=1;fontSource=https%3A%2F%2Ffonts.googleapis.com%2Fcss%3Ffamily%3DK2D;" vertex="1" parent="1">
          <mxGeometry x="600" y="160" width="240" height="200" as="geometry" />
        </mxCell>
        <mxCell id="3TScN3PvkGAsa4OGOtqx-9" value="" style="whiteSpace=wrap;html=1;fontFamily=K2D;fillColor=none;rounded=1;fontSource=https%3A%2F%2Ffonts.googleapis.com%2Fcss%3Ffamily%3DK2D;" vertex="1" parent="1">
          <mxGeometry x="160" y="160" width="360" height="200" as="geometry" />
        </mxCell>
        <mxCell id="3TScN3PvkGAsa4OGOtqx-27" style="edgeStyle=orthogonalEdgeStyle;rounded=0;orthogonalLoop=1;jettySize=auto;html=1;entryX=0.5;entryY=0;entryDx=0;entryDy=0;" edge="1" parent="1" source="3TScN3PvkGAsa4OGOtqx-14" target="3TScN3PvkGAsa4OGOtqx-18">
          <mxGeometry relative="1" as="geometry" />
        </mxCell>
        <mxCell id="3TScN3PvkGAsa4OGOtqx-28" style="edgeStyle=orthogonalEdgeStyle;rounded=0;orthogonalLoop=1;jettySize=auto;html=1;entryX=0.5;entryY=0;entryDx=0;entryDy=0;" edge="1" parent="1" source="3TScN3PvkGAsa4OGOtqx-14" target="3TScN3PvkGAsa4OGOtqx-24">
          <mxGeometry relative="1" as="geometry" />
        </mxCell>
        <mxCell id="3TScN3PvkGAsa4OGOtqx-29" style="edgeStyle=orthogonalEdgeStyle;rounded=0;orthogonalLoop=1;jettySize=auto;html=1;entryX=0.5;entryY=0;entryDx=0;entryDy=0;" edge="1" parent="1" source="3TScN3PvkGAsa4OGOtqx-14" target="3TScN3PvkGAsa4OGOtqx-26">
          <mxGeometry relative="1" as="geometry" />
        </mxCell>
        <mxCell id="3TScN3PvkGAsa4OGOtqx-30" style="edgeStyle=orthogonalEdgeStyle;rounded=0;orthogonalLoop=1;jettySize=auto;html=1;entryX=0.5;entryY=0;entryDx=0;entryDy=0;" edge="1" parent="1" source="3TScN3PvkGAsa4OGOtqx-14" target="3TScN3PvkGAsa4OGOtqx-25">
          <mxGeometry relative="1" as="geometry" />
        </mxCell>
        <mxCell id="3TScN3PvkGAsa4OGOtqx-14" value="API Services" style="rounded=1;whiteSpace=wrap;html=1;fontFamily=K2D;fontSource=https%3A%2F%2Ffonts.googleapis.com%2Fcss%3Ffamily%3DK2D;fillColor=none;" vertex="1" parent="1">
          <mxGeometry x="280" y="195" width="120" height="60" as="geometry" />
        </mxCell>
        <mxCell id="3TScN3PvkGAsa4OGOtqx-15" value="" style="rounded=1;whiteSpace=wrap;html=1;fontFamily=K2D;fontSource=https%3A%2F%2Ffonts.googleapis.com%2Fcss%3Ffamily%3DK2D;fillColor=none;" vertex="1" parent="1">
          <mxGeometry x="-80" y="210" width="120" height="60" as="geometry" />
        </mxCell>
        <mxCell id="3TScN3PvkGAsa4OGOtqx-16" value="" style="rounded=1;whiteSpace=wrap;html=1;fontFamily=K2D;fontSource=https%3A%2F%2Ffonts.googleapis.com%2Fcss%3Ffamily%3DK2D;fillColor=none;" vertex="1" parent="1">
          <mxGeometry x="620" y="210" width="120" height="60" as="geometry" />
        </mxCell>
        <mxCell id="3TScN3PvkGAsa4OGOtqx-18" value="Create" style="whiteSpace=wrap;html=1;fontFamily=K2D;fillColor=none;rounded=1;fontSource=https%3A%2F%2Ffonts.googleapis.com%2Fcss%3Ffamily%3DK2D;flipV=0;fontSize=9;" vertex="1" parent="1">
          <mxGeometry x="195" y="295" width="60" height="30" as="geometry" />
        </mxCell>
        <mxCell id="3TScN3PvkGAsa4OGOtqx-24" value="Read" style="whiteSpace=wrap;html=1;fontFamily=K2D;fillColor=none;rounded=1;fontSource=https%3A%2F%2Ffonts.googleapis.com%2Fcss%3Ffamily%3DK2D;flipV=0;fontSize=9;" vertex="1" parent="1">
          <mxGeometry x="272" y="295" width="60" height="30" as="geometry" />
        </mxCell>
        <mxCell id="3TScN3PvkGAsa4OGOtqx-25" value="Delete" style="whiteSpace=wrap;html=1;fontFamily=K2D;fillColor=none;rounded=1;fontSource=https%3A%2F%2Ffonts.googleapis.com%2Fcss%3Ffamily%3DK2D;flipV=0;fontSize=9;" vertex="1" parent="1">
          <mxGeometry x="425" y="295" width="60" height="30" as="geometry" />
        </mxCell>
        <mxCell id="3TScN3PvkGAsa4OGOtqx-26" value="Update" style="whiteSpace=wrap;html=1;fontFamily=K2D;fillColor=none;rounded=1;fontSource=https%3A%2F%2Ffonts.googleapis.com%2Fcss%3Ffamily%3DK2D;flipV=0;fontSize=9;" vertex="1" parent="1">
          <mxGeometry x="348" y="295" width="60" height="30" as="geometry" />
        </mxCell>
      </root>
    </mxGraphModel>
  </diagram>
</mxfile>
